<?xml version="1.0" standalone="no"?>
<!DOCTYPE svg PUBLIC "-//W3C//DTD SVG 20010904//EN"
 "http://www.w3.org/TR/2001/REC-SVG-20010904/DTD/svg10.dtd">
<svg version="1.0" xmlns="http://www.w3.org/2000/svg"
 width="700.000000pt" height="700.000000pt" viewBox="0 0 700.000000 700.000000"
 preserveAspectRatio="xMidYMid meet">
<metadata>
Created by potrace 1.14, written by Peter Selinger 2001-2017
</metadata>
<g transform="translate(0.000000,700.000000) scale(0.100000,-0.100000)"
fill="#000000" stroke="none">
<path d="M1165 5680 c-11 -4 -31 -19 -44 -34 -21 -22 -24 -37 -26 -98 l-2 -73
-319 -6 c-337 -5 -340 -6 -442 -58 -92 -47 -186 -173 -211 -282 -7 -29 -10
-631 -8 -1764 l2 -1720 36 -75 c40 -85 103 -154 182 -198 112 -64 -125 -60
3166 -60 1901 0 3015 3 3042 9 119 27 245 122 296 223 56 110 53 4 53 1846 0
1604 -1 1708 -18 1760 -28 87 -60 139 -118 195 -62 59 -113 87 -199 110 -53
13 -311 15 -2322 15 l-2263 0 0 66 c0 80 -16 115 -65 141 -23 12 -709 15 -740
3z"/>
</g>
</svg>
