<?xml version="1.0" encoding="utf-8"?>
<!-- Generator: Adobe Illustrator 16.0.0, SVG Export Plug-In . SVG Version: 6.00 Build 0)  -->
<!DOCTYPE svg PUBLIC "-//W3C//DTD SVG 1.1//EN" "http://www.w3.org/Graphics/SVG/1.1/DTD/svg11.dtd">
<svg version="1.1" id="icons" xmlns="http://www.w3.org/2000/svg" xmlns:xlink="http://www.w3.org/1999/xlink" x="0px" y="0px"
	 width="64px" height="64px" viewBox="0 0 64 64" enable-background="new 0 0 64 64" xml:space="preserve">
<g>
	<path fill="#AAB2BD" d="M17,12c0.55,0,1,0.451,1,1v1c0,0.551-0.45,1-1,1h-6c-0.55,0-1-0.449-1-1v-1c0-0.549,0.45-1,1-1H17z"/>
	<path fill="#656D78" d="M59,14H18h-8H5c-2.2,0-4,1.8-4,4v4v22c0,2.2,1.8,4,4,4h54c2.2,0,4-1.8,4-4V22v-4C63,15.8,61.2,14,59,14z"/>
	<path fill="#AAB2BD" d="M41,18c7.17,0,13,5.82,13,13s-5.83,13-13,13c-7.18,0-13-5.82-13-13S33.82,18,41,18z M50,31
		c0-4.97-4.04-9-9-9c-4.97,0-9,4.03-9,9s4.03,9,9,9C45.96,40,50,35.97,50,31z"/>
	<path fill="#CCD1D9" d="M41,22c-4.97,0-9,4.03-9,9s4.03,9,9,9c4.96,0,9-4.03,9-9S45.96,22,41,22z"/>
	<path fill="#545C66" d="M63,44v4c0,2.2-1.8,4-4,4H5c-2.2,0-4-1.8-4-4v-4c0,2.2,1.8,4,4,4h54C61.2,48,63,46.2,63,44z"/>
	<path fill="#656D78" d="M45.001,27c0.55,0,1,0.449,1,1v6.001c0,0.55-0.45,1-1,1h-8.002c-0.55,0-1-0.45-1-1V28c0-0.551,0.45-1,1-1
		H45.001z"/>
	<circle fill="#5D9CEC" cx="41.001" cy="31" r="2"/>
	<g>
		<g>
			<path fill="#E6E9ED" d="M58,19h-6c-0.553,0-1-0.447-1-1c0-0.552,0.447-1,1-1h6c0.553,0,1,0.448,1,1C59,18.553,58.553,19,58,19z"
				/>
		</g>
		<g>
			<path fill="#545C66" d="M11.002,41c-0.553,0-1-0.447-1-1V22c0-0.553,0.447-1,1-1s1,0.447,1,1v18
				C12.002,40.553,11.555,41,11.002,41z"/>
		</g>
		<g>
			<path fill="#545C66" d="M14.002,41c-0.553,0-1-0.447-1-1V22c0-0.553,0.447-1,1-1s1,0.447,1,1v18
				C15.002,40.553,14.555,41,14.002,41z"/>
		</g>
		<g>
			<path fill="#545C66" d="M17.002,37c-0.553,0-1-0.447-1-1V26c0-0.553,0.447-1,1-1s1,0.447,1,1v10
				C18.002,36.553,17.555,37,17.002,37z"/>
		</g>
		<g>
			<path fill="#545C66" d="M29.035,19.001c-0.553,0-1.005-0.448-1.005-1s0.442-1,0.994-1h0.011c0.552,0,1,0.448,1,1
				S29.587,19.001,29.035,19.001z"/>
		</g>
		<g>
			<path fill="#545C66" d="M25.035,19.001c-0.553,0-1.005-0.448-1.005-1s0.442-1,0.994-1h0.011c0.552,0,1,0.448,1,1
				S25.587,19.001,25.035,19.001z"/>
		</g>
	</g>
</g>
</svg>
